PathFileType	4	(X/Y/Z)	Patient4_TMGait_0pt2_03_left_03.trc.trc
DataRate	CameraRate	NumFrames	NumMarkers	Units	OrigDataRate	OrigDataStartFrame	OrigNumFrames
48.442906574394	48.442906574394	5	33	mm	48.442906574394	53	       141
Frame#	Time	Sacral			L.Shoulder			Chest			R.Shoulder			Neck			R.ASIS			L.ASIS			R.Thigh.Superior			R.Thigh.Lateral			R.Thigh.Inferior			R.Patella			L.Thigh.Superior			L.Thigh.Lateral			L.Thigh.Inferior			L.Patella			L.Shank.Superior			L.Shank.Lateral			L.Shank.Inferior			R.Shank.Superior			R.Shank.Lateral			R.Shank.Inferior			R.Heel			R.Midfoot.Superior			R.Midfoot.Lateral			R.Toe			L.Heel			L.Midfoot.Lateral			L.Midfoot.Superior			L.Toe			L.Elbow			L.Wrist			R.Elbow			R.Wrist			
		X1	Y1	Z1	X2	Y2	Z2	X3	Y3	Z3	X4	Y4	Z4	X5	Y5	Z5	X6	Y6	Z6	X7	Y7	Z7	X8	Y8	Z8	X9	Y9	Z9	X10	Y10	Z10	X11	Y11	Z11	X12	Y12	Z12	X13	Y13	Z13	X14	Y14	Z14	X15	Y15	Z15	X16	Y16	Z16	X17	Y17	Z17	X18	Y18	Z18	X19	Y19	Z19	X20	Y20	Z20	X21	Y21	Z21	X22	Y22	Z22	X23	Y23	Z23	X24	Y24	Z24	X25	Y25	Z25	X26	Y26	Z26	X27	Y27	Z27	X28	Y28	Z28	X29	Y29	Z29	X30	Y30	Z30	X31	Y31	Z31	X32	Y32	Z32	X33	Y33	Z33	

53	6.233428571429	753.940379739285	992.530030345009	407.067967812237	936.156231082635	1424.496818938050	229.851107923742	1031.938087155686	1355.530531258575	394.524425523447	942.857450947505	1429.606502493208	564.154463057589	905.282120691624	1485.315843226895	387.918380997032	980.668559435442	933.357600123700	531.418825089293	975.931527128100	951.533678736062	258.069581387522	1036.926355237354	737.875299888386	515.903532619229	967.236046287696	628.161483525991	589.779204404110	1051.793312425979	570.563602250208	518.427663233652	1050.004863672396	462.174194998188	545.269421471278	1039.683088739770	749.436980316581	296.594608094577	970.904170908249	619.033907062202	239.193331044309	1063.841182120302	555.596806271833	308.087378346291	1071.558283836211	480.678916592921	316.755059751283	1034.383055239187	405.379683880658	312.433806462290	933.916367879703	299.573568953803	262.958674623421	969.353507215930	186.249789486469	337.472784977842	973.208491421521	394.269256262644	555.380697907929	855.334507010097	358.146360991729	624.183235771072	838.069476847709	247.349946449525	578.195693402485	634.120308743159	179.547746724007	565.432115152663	807.231731182271	130.607308586199	596.209472508893	700.469649833971	123.058047923206	634.328893336342	879.612960219507	31.916008585857	615.931844417318	825.581765392911	39.264042298013	380.240098980893	898.777204209797	36.028661870581	299.367689527528	983.567370135328	95.905043886742	325.890405013285	1110.845694150443	41.437244736439	294.875728503586	966.183313746922	1082.989433117144	88.354042794139	1064.049919172268	839.623878900483	101.054416591307	1013.358181415744	1086.882313483470	685.952325734463	1218.802470428912	928.572838165079	685.832439339218	
54	6.254071428571	752.441251732246	989.814386015447	402.478879310869	937.152999277223	1422.428375192705	226.878167779384	1030.539728877266	1353.499928241853	392.867368202567	939.037051314758	1426.868234680560	561.674723723863	904.123002391987	1483.338283437840	384.817596462122	978.765311492719	932.031395189420	528.798616682946	975.950605726833	949.568341988905	255.174301013283	1041.955062982999	740.426726492118	512.083379246298	977.039633442965	628.638960736340	586.338717233866	1063.341425917054	573.522102099040	514.529664266495	1064.350192102936	463.829816318435	541.947067971623	1040.428922962479	747.805100121886	294.329459209062	972.282994271711	617.027163158619	237.357469927061	1064.891516315894	554.058260659975	307.316190293792	1072.664485573648	479.028469823158	316.449344313634	1034.732466209945	403.434163548878	312.200594739768	933.359620062466	298.558349632935	262.485894465420	966.756826004889	185.162489022665	337.650030679205	986.032840210444	395.925278846871	552.224771247215	866.677520987560	362.988179133058	620.691548712236	846.745271558618	252.321360467896	575.426007569291	641.118109016455	191.363242647212	561.945791481224	812.647766658644	135.590531859719	594.214444287401	704.917246924472	132.253256966434	631.466172752519	881.018611725432	31.618066174942	614.998783640370	821.445423105968	39.171589839507	380.171423538942	894.656584957714	35.981284471937	299.286637766427	979.470965220206	95.814469607318	326.034956908462	1106.736209310165	41.429836158638	294.862342296550	979.859654712562	1082.426499669855	84.989476686068	1092.238167780588	845.611736349258	98.635777882675	990.341441338275	1079.607571257801	682.840463241547	1179.522386657333	902.313668069508	687.455844125201	
55	6.274714285714	751.006249117224	987.282975326478	398.381064683203	937.959716208527	1420.573218868345	224.328786788787	1029.050557893696	1351.691163563278	391.540558334015	935.154987029930	1424.276420852372	559.533381137144	902.891192481363	1481.538808813479	382.133217273247	976.961921890088	930.925399003610	526.547153587248	975.974573421774	947.795114912512	252.629352490837	1046.424064926385	743.175318176342	508.359818695625	986.204223799733	629.514917691723	582.965319064530	1073.807269817706	576.856794369296	510.421634400057	1077.726700095832	466.120604555467	538.202634892096	1041.121501133115	746.282338624659	292.508532665319	973.503670075756	615.145461131684	235.922383649428	1065.694728040339	552.579416532637	306.952331815965	1073.500575945199	477.480821956094	316.563007590168	1034.837589235342	401.615261206972	312.293920996058	932.661235774090	297.630215171703	262.249189770222	964.097691843353	184.141893631227	337.952595291509	998.347665395976	397.895457520381	548.833709753765	877.935046219328	367.212387489020	617.111074798172	856.076362829889	256.607251820970	572.467618424426	649.289756134992	200.593513401186	558.534585179449	819.656573363318	139.926234430128	592.003474054074	711.215633378533	139.713722182298	628.614245856175	885.089315005420	31.628540608070	613.784586581397	817.308389461747	39.098151937501	380.110973393447	890.544683958936	35.950908552666	299.224162833656	975.386923447994	95.728907513889	326.204615327871	1102.627781732112	41.418889385392	294.856088778549	992.945052862718	1082.542758188248	82.174349733937	1120.273178761318	853.628340269839	96.780818147527	966.782210276771	1073.510133608398	679.384360523800	1137.579123006510	878.763413539478	687.880638732880	
56	6.295357142857	749.679527371427	985.156970095127	394.722677122234	938.654835813178	1419.118303575689	222.203930463643	1027.521915609743	1350.288684869983	390.562706155431	931.234578234922	1422.051748162673	557.712198147077	901.614283379479	1480.086808597310	379.853499311676	975.250799620364	930.188302937967	524.677778157850	976.069011995826	946.382165309159	250.466473992750	1050.196077223315	746.127822935417	504.819118375791	994.461950543726	630.831454843407	579.733484943340	1082.928687569234	580.524942417036	506.216267262903	1089.821470076904	469.049199273167	534.181109298108	1041.665433320983	744.923370121297	291.093264406510	974.358189990739	613.510348779549	234.837787268452	1066.007654654015	551.215997805915	306.897219774433	1073.774003061226	476.113030958101	316.990463839969	1034.446692232443	400.022002071772	312.612937575980	931.616477274928	296.825636315278	262.177474961124	961.279514664975	183.246088643959	338.322133690857	1009.922987389501	400.165656151354	545.333322486429	888.920405969180	370.613529871178	613.560733466071	866.105785213796	259.945498939639	569.451503330998	658.755716438095	206.518241447296	555.336541171872	828.536345435692	143.299996875715	589.698498640506	719.637320344641	144.853719762519	625.899411015858	892.368992000212	31.975541530438	612.374910063492	813.162135796367	39.040041439828	380.055267988587	886.433771952626	35.930579655640	299.173348412704	971.303113140836	95.651925727019	326.375704389630	1098.514623948946	41.410677101800	294.857044659884	1005.369930623737	1083.485182092027	79.862777045916	1147.860287561510	863.882023568230	95.472459094179	942.976367733899	1068.908370524158	675.584666698813	1093.612735047784	858.533828057341	687.027623061719	
57	6.316000000000	748.489389497196	983.637189637514	391.444950146843	939.332649354208	1418.222746325170	220.497040178305	1026.008633609485	1349.447399020748	389.948496479292	927.310002826517	1420.400006148966	556.184547777822	900.331449380119	1479.132988163779	377.954210910662	973.602077081968	929.941451469381	523.200550423780	976.274341676289	945.475305340368	248.716598073210	1053.169168023432	749.285069922800	501.555856408317	1001.590376007667	632.603626513225	576.730502406472	1090.521997617211	584.470095712081	502.064072829612	1100.395227969865	472.598367132964	530.074200372967	1041.946014056890	743.778384594166	290.041364031313	974.634307209782	612.238032858716	234.035194242673	1065.586232197802	550.022655352271	307.039624168905	1073.194104123856	474.998016140741	317.606443926999	1033.314063972703	398.747339399974	313.042815202323	930.024927355008	296.175620135925	262.190919547458	958.204228477881	182.528227045113	338.697345410935	1020.593429606319	402.715735158428	541.876470323578	899.505566916603	373.028185835036	610.164613966881	876.897658784195	262.144925482913	566.511635856633	669.683268304962	208.629749274442	552.434143320207	839.532201128859	145.486315650009	587.431454020744	730.419097910802	147.256726880971	623.415052754988	903.274255728645	32.663904399715	610.900484270757	808.997965664426	38.991327604746	380.001884374865	882.314577553969	35.912651891318	299.126929581809	967.204559753143	95.587350978546	326.524826966586	1094.389299114074	41.415009813701	294.864681854571	1017.101599695590	1085.360638857305	78.001102495615	1174.702982020786	876.492168563860	94.691881788755	919.225300936909	1066.077058403135	671.471323475140	1048.384319125071	842.128261333302	684.883967764754	
